<svg version="1.1" id="Layer_1" xmlns:x="ns_extend;" xmlns:i="ns_ai;" xmlns:graph="ns_graphs;" xmlns="http://www.w3.org/2000/svg" xmlns:xlink="http://www.w3.org/1999/xlink" x="0px" y="0px" viewBox="0 0 65.8 85" style="enable-background:new 0 0 65.8 85;" xml:space="preserve">
 <style type="text/css">
  .st0{fill-rule:evenodd;clip-rule:evenodd;fill:url(#SVGID_1_);}
 </style>
 <metadata>
  <sfw xmlns="ns_sfw;">
   <slices>
   </slices>
   <sliceSourceBounds bottomLeftOrigin="true" height="85" width="65.8" x="-187.9" y="44.9">
   </sliceSourceBounds>
  </sfw>
 </metadata>
 <linearGradient id="SVGID_1_" gradientUnits="userSpaceOnUse" x1="138.329" y1="180.2016" x2="138.5057" y2="179.9321" gradientTransform="matrix(231.6429 0 0 -299.0859 -32028.2441 53889.7734)">
  <stop offset="0" style="stop-color:#9478D2">
  </stop>
  <stop offset="1" style="stop-color:#59418D">
  </stop>
 </linearGradient>
 <path class="st0" d="M41.5,0C30.1,0.4,19.4,5.2,11.6,13.6c-16.2,17.3-15.3,44.5,2,60.7c6.1,5.7,13.3,9.2,20.9,10.8l2.3-5.7
	c-6.9-1.2-13.6-4.3-19.1-9.4C2.8,55.9,2.1,32.5,16,17.7C22.7,10.5,31.9,6.4,41.7,6c0.4,0,0.8,0,1.2,0c7.4,0,14.6,2.2,20.6,6.3
	l2.3-5.7C59,2.3,51.1,0,42.9,0C42.5,0,42,0,41.5,0z M45.9,21.8h-5.8h-0.2L39.8,22L24.6,60l-0.2,0.4h0.4H31h0.2l0.1-0.2l3.7-9.6h16.4
	l3.8,9.6l0.1,0.2h0.2h6.4h0.4L62.1,60l-9.8-24.6l-0.1-0.2H52h-6.1h-0.4l0.2,0.4l3.5,9H37.4l8.7-22.4l0.2-0.4L45.9,21.8z">
 </path>
</svg>